<?xml version="1.0" encoding="UTF-8"?>
<svg version="1.1" xmlns="http://www.w3.org/2000/svg" width="1024" height="1024">
<path d="M0 0 C0.93640823 -0.00960754 1.87281647 -0.01921509 2.83760071 -0.02911377 C3.8633873 -0.03336365 4.88917389 -0.03761353 5.94604492 -0.04199219 C7.53747566 -0.0505423 7.53747566 -0.0505423 9.16105652 -0.05926514 C11.42506915 -0.06874592 13.68909577 -0.07526124 15.953125 -0.07910156 C19.34621293 -0.08864142 22.73865067 -0.11956225 26.1315918 -0.15136719 C38.85026312 -0.21371763 51.02563788 0.47482137 63.54037476 2.77947998 C65.40604067 3.12285542 67.27701981 3.43705605 69.1484375 3.74755859 C85.45725112 6.45910452 101.19502036 10.61660601 117.00219727 15.39257812 C118.6011401 15.86308402 120.20836792 16.3076392 121.82666016 16.70654297 C124.13996226 17.29490091 126.14476753 18.26362522 128.30151367 19.28613281 C133.33846977 21.61402334 138.42442637 23.79157927 143.55151367 25.91113281 C144.65209106 26.36963623 144.65209106 26.36963623 145.77490234 26.83740234 C149.02783964 28.17550067 152.18856265 29.36805975 155.61401367 30.16113281 C155.61401367 30.82113281 155.61401367 31.48113281 155.61401367 32.16113281 C156.48413086 32.43441406 157.35424805 32.70769531 158.25073242 32.98925781 C166.1398416 35.73807634 173.45382287 39.79896456 180.30151367 44.55566406 C181.92834406 45.68510205 183.57648079 46.7841584 185.23901367 47.86035156 C197.21501459 55.62197172 208.80526601 64.21874842 219.24291992 73.96582031 C221.22967628 75.80528831 223.25003898 77.57505852 225.30151367 79.34082031 C236.99120544 89.54090281 248.28167868 100.74703795 257.61401367 113.16113281 C258.56141138 114.39200118 259.5093714 115.62243685 260.45776367 116.85253906 C286.22056763 150.4949568 327.61401367 209.96586008 327.61401367 254.16113281 C328.27401367 254.49113281 328.93401367 254.82113281 329.61401367 255.16113281 C330.10620117 256.91894531 330.10620117 256.91894531 330.48901367 259.28613281 C330.67463867 260.18203125 330.86026367 261.07792969 331.05151367 262.00097656 C331.61401367 265.16113281 331.61401367 265.16113281 331.92651367 268.91503906 C332.5894411 273.55092739 333.18454728 276.13660879 335.61401367 280.16113281 C340.65931345 283.50845508 346.95777298 284.64173078 352.71850586 286.25634766 C374.80019924 293.15641137 395.81815227 307.4466145 412.61401367 323.16113281 C413.2358252 323.73524902 413.85763672 324.30936523 414.49829102 324.90087891 C434.70237512 343.72550835 455.54631778 370.96641717 459.61401367 399.16113281 C459.65739384 403.98356109 459.0727124 407.96483781 456.61401367 412.16113281 C451.62601761 416.52562937 447.02093297 417.13645042 440.61401367 417.16113281 C435.89520808 416.61771043 431.26921077 415.72115103 426.61401367 414.78613281 C405.10095229 410.60303754 385.05829161 410.13741394 363.61401367 415.09863281 C362.93234131 415.2562207 362.25066895 415.41380859 361.54833984 415.57617188 C356.74339063 416.74876982 352.2189328 418.35719686 347.61401367 420.16113281 C350.09259346 424.54888892 353.0503273 428.42843835 356.11401367 432.41113281 C393.61401367 482.0257288 393.61401367 482.0257288 393.61401367 504.16113281 C394.27401367 504.49113281 394.93401367 504.82113281 395.61401367 505.16113281 C396.38044091 507.95739469 397.03068125 510.70098442 397.61401367 513.53613281 C397.78843994 514.35670166 397.96286621 515.17727051 398.14257812 516.02270508 C398.64355075 518.40015863 399.13128516 520.77991624 399.61401367 523.16113281 C399.83444336 524.23492188 400.05487305 525.30871094 400.28198242 526.41503906 C402.78495144 539.34390911 405.08353127 553.73124417 398.86401367 565.91113281 C394.58747192 572.08835978 389.65147644 573.70510603 382.61401367 575.16113281 C382.61401367 574.50113281 382.61401367 573.84113281 382.61401367 573.16113281 C381.83026367 573.11988281 381.04651367 573.07863281 380.23901367 573.03613281 C364.973288 569.35130248 349.57067221 554.76145473 337.21704102 545.35693359 C331.51209958 541.03050419 325.63342698 537.03727017 319.61401367 533.16113281 C319.21053711 533.99128906 318.80706055 534.82144531 318.39135742 535.67675781 C298.19815588 576.82701067 274.38052328 614.88569983 243.02416992 648.50488281 C241.45314065 650.23632512 239.93455635 652.01729882 238.48120117 653.84863281 C236.16278144 656.7199811 233.46939794 658.83020688 230.61401367 661.16113281 C228.25943862 663.4520707 225.96677275 665.79477855 223.68823242 668.16113281 C218.00589118 673.97468264 211.98482983 679.11930047 205.61401367 684.16113281 C204.5420267 685.0239516 203.47042397 685.88724796 202.39916992 686.75097656 C153.23105613 726.16113281 153.23105613 726.16113281 140.61401367 726.16113281 C140.28401367 726.82113281 139.95401367 727.48113281 139.61401367 728.16113281 C137.50221928 729.27018402 135.34890897 730.30105981 133.17651367 731.28613281 C131.41500977 732.094375 131.41500977 732.094375 129.61791992 732.91894531 C126.61401367 734.16113281 126.61401367 734.16113281 124.61401367 734.16113281 C124.28401367 734.82113281 123.95401367 735.48113281 123.61401367 736.16113281 C121.89477539 736.87866211 121.89477539 736.87866211 119.66870117 737.54785156 C116.33442592 738.59762831 113.0655503 739.7209741 109.80932617 740.99316406 C108.57786865 741.47414551 108.57786865 741.47414551 107.3215332 741.96484375 C106.46930176 742.29774414 105.61707031 742.63064453 104.73901367 742.97363281 C67.91035584 757.16113281 67.91035584 757.16113281 55.61401367 757.16113281 C55.28401367 757.82113281 54.95401367 758.48113281 54.61401367 759.16113281 C52.58859935 759.4260789 50.56005327 759.67351887 48.52563477 759.85693359 C45.16080342 760.20848314 41.84716778 760.73506216 38.50854492 761.28222656 C37.1797734 761.49774921 35.85099725 761.71324335 34.5222168 761.92871094 C31.84149898 762.36565613 29.16221336 762.80966263 26.4831543 763.25683594 C7.14427239 766.41506291 -12.11785282 767.54570683 -31.69848633 767.47363281 C-33.2574614 767.47089859 -33.2574614 767.47089859 -34.84793091 767.46810913 C-53.19332586 767.41433908 -71.18421891 766.50436461 -89.38598633 764.16113281 C-90.05295532 764.07627625 -90.71992432 763.99141968 -91.40710449 763.9039917 C-109.16484565 761.63137652 -126.64375425 758.49882239 -144.07177734 754.39648438 C-145.32273193 754.10612305 -146.57368652 753.81576172 -147.86254883 753.51660156 C-149.50344482 753.12444458 -149.50344482 753.12444458 -151.17749023 752.72436523 C-154.46408359 752.0463398 -154.46408359 752.0463398 -158.16870117 752.20141602 C-161.38598633 752.16113281 -161.38598633 752.16113281 -163.38598633 750.16113281 C-165.37661296 749.46810793 -167.39562747 748.8556298 -169.42504883 748.28613281 C-171.25616211 747.76792969 -171.25616211 747.76792969 -173.12426758 747.23925781 C-174.41982696 746.87983402 -175.71539998 746.52045939 -177.01098633 746.16113281 C-178.27040039 745.80535156 -179.52981445 745.44957031 -180.82739258 745.08300781 C-186.99248151 743.34927871 -193.16106291 741.66640397 -199.38598633 740.16113281 C-199.70760742 740.85561523 -200.02922852 741.55009766 -200.3605957 742.265625 C-212.29244304 767.908033 -212.29244304 767.908033 -219.38598633 777.16113281 C-220.00602539 777.98742187 -220.62606445 778.81371094 -221.26489258 779.66503906 C-236.30476988 799.0801534 -254.05812459 815.336794 -275.21020508 827.82910156 C-277.48737575 829.10661269 -277.48737575 829.10661269 -279.38598633 831.16113281 C-282.33065972 832.73429801 -285.40103214 834.04971455 -288.44848633 835.41113281 C-289.77831543 836.00849243 -289.77831543 836.00849243 -291.13500977 836.61791992 C-299.39767876 840.27131572 -307.81203345 843.32906288 -316.38598633 846.16113281 C-316.38598633 846.82113281 -316.38598633 847.48113281 -316.38598633 848.16113281 C-317.40047852 848.13019531 -318.4149707 848.09925781 -319.46020508 848.06738281 C-323.29655654 848.15899718 -326.47991793 848.75966168 -330.19848633 849.66113281 C-336.12184079 850.95684296 -341.88669954 851.51897891 -347.94848633 851.59863281 C-348.69783447 851.62054687 -349.44718262 851.64246094 -350.21923828 851.66503906 C-355.35778367 851.64654469 -358.35914492 850.60665576 -362.38598633 847.16113281 C-364.78848928 843.65347851 -364.75085456 840.80839126 -364.17504883 836.70410156 C-362.54680486 831.45664203 -358.74595603 827.41671413 -355.38598633 823.16113281 C-343.75062773 807.68970882 -335.57170881 790.78454371 -329.23510742 772.56445312 C-322.50600624 753.51865899 -314.24979734 736.79364487 -301.38598633 721.16113281 C-300.58032227 720.14792969 -299.7746582 719.13472656 -298.94458008 718.09082031 C-296.38368201 715.15849428 -293.74747721 712.82370404 -290.69848633 710.41113281 C-286.9195453 707.42311414 -286.9195453 707.42311414 -283.38598633 704.16113281 C-283.38598633 703.50113281 -283.38598633 702.84113281 -283.38598633 702.16113281 C-284.35123889 701.20794591 -285.36054038 700.29924225 -286.38598633 699.41113281 C-302.38680852 683.79899456 -308.86906711 655.4429564 -310.06860352 633.99584961 C-310.17333984 633.39039307 -310.27807617 632.78493652 -310.38598633 632.16113281 C-311.04598633 631.83113281 -311.70598633 631.50113281 -312.38598633 631.16113281 C-312.72094727 629.21435547 -312.72094727 629.21435547 -312.87036133 626.70019531 C-313.29761337 621.47100179 -314.31341507 616.6044726 -315.63598633 611.53613281 C-315.96759766 610.24243774 -315.96759766 610.24243774 -316.3059082 608.92260742 C-319.34902878 597.23396404 -322.94910696 585.84459365 -327.46801758 574.63769531 C-328.38598633 572.16113281 -328.38598633 572.16113281 -328.38598633 570.16113281 C-329.37598633 570.16113281 -330.36598633 570.16113281 -331.38598633 570.16113281 C-331.05598633 569.17113281 -330.72598633 568.18113281 -330.38598633 567.16113281 C-330.70564901 565.40018399 -331.08835326 563.65024359 -331.51098633 561.91113281 C-332.17828381 558.40318704 -332.69612277 555.63830719 -331.51098633 552.22363281 C-328.68464485 548.15037597 -326.13572274 546.49674921 -321.38598633 545.16113281 C-300.22596263 541.87709713 -278.79471898 555.62267607 -262.41943359 567.37548828 C-257.07667066 571.28927711 -252.16605454 575.57683531 -247.38598633 580.16113281 C-246.28383789 581.1859375 -246.28383789 581.1859375 -245.15942383 582.23144531 C-238.48699178 588.62094738 -232.92192298 595.79384132 -227.38598633 603.16113281 C-226.74661133 604.00546875 -226.10723633 604.84980469 -225.44848633 605.71972656 C-209.73982556 627.28277248 -199.46038087 653.32961661 -193.38598633 679.16113281 C-190.40622429 678.70643871 -187.42722102 678.24747072 -184.44848633 677.78613281 C-183.20228516 677.59664062 -183.20228516 677.59664062 -181.9309082 677.40332031 C-177.7105565 676.74645623 -173.50609978 676.03232604 -169.31958008 675.18457031 C-168.58666748 675.03681152 -167.85375488 674.88905273 -167.09863281 674.73681641 C-165.16740298 674.31173437 -165.16740298 674.31173437 -164.38598633 672.16113281 C-162.99379883 672.00644531 -162.99379883 672.00644531 -161.57348633 671.84863281 C-142.84863635 669.62768946 -125.50792969 654.52303175 -112.38598633 642.16113281 C-111.72211914 641.56171875 -111.05825195 640.96230469 -110.37426758 640.34472656 C-82.21091022 613.89516377 -66.90510203 568.76542277 -65.29356384 530.99497986 C-65.25581674 528.82183424 -65.24718581 526.65099554 -65.25317383 524.47753906 C-65.2522171 523.69595932 -65.25126038 522.91437958 -65.25027466 522.1091156 C-65.24960031 520.47647012 -65.25140197 518.84382183 -65.25561523 517.21118164 C-65.26102547 514.70550634 -65.25561909 512.20000614 -65.24926758 509.69433594 C-65.2499275 508.10123658 -65.25120687 506.50813734 -65.25317383 504.91503906 C-65.25013748 503.79168907 -65.25013748 503.79168907 -65.24703979 502.64564514 C-65.19249405 498.77594573 -65.19249405 498.77594573 -66.38598633 495.16113281 C-66.66298352 491.81957943 -66.83299336 488.47827407 -67.00708008 485.12988281 C-67.0929596 482.04623025 -67.0929596 482.04623025 -69.38598633 480.16113281 C-72.30915964 480.49512222 -75.12263334 480.94179248 -78.01098633 481.47363281 C-114.38930952 487.45033093 -151.60412602 482.94582715 -186.38598633 471.16113281 C-187.3842041 470.82758789 -187.3842041 470.82758789 -188.40258789 470.48730469 C-224.43492421 458.26367667 -255.85345695 438.21916719 -283.38598633 412.16113281 C-283.90950684 411.67161133 -284.43302734 411.18208984 -284.97241211 410.67773438 C-310.35452734 386.81684723 -334.12259964 351.80947312 -336.38598633 316.16113281 C-336.45693055 309.61652847 -335.48174659 303.45505578 -331.38598633 298.16113281 C-324.90831371 293.07047893 -318.2957565 292.54498262 -310.38598633 293.16113281 C-300.03379002 295.331029 -290.94781476 299.44260193 -281.57348633 304.16113281 C-279.69756579 305.09193493 -277.82003535 306.01941946 -275.94216919 306.94628906 C-274.16568598 307.82430086 -272.39176369 308.70748821 -270.61791992 309.59082031 C-267.1096919 311.29537709 -263.56253269 312.85907515 -259.95361328 314.33691406 C-258.38598633 315.16113281 -258.38598633 315.16113281 -257.38598633 317.16113281 C-255.39009041 317.83998769 -253.38886691 318.50317093 -251.38598633 319.16113281 C-249.17178305 320.17243275 -246.99778669 321.25279734 -244.81665039 322.33349609 C-217.2947073 335.95775184 -188.15342166 345.78136339 -158.38598633 353.16113281 C-158.89387695 352.51789063 -159.40176758 351.87464844 -159.92504883 351.21191406 C-168.92583807 339.39627126 -175.6950121 326.34026147 -174.38598633 311.16113281 C-173.31514952 305.41755354 -171.38240518 302.25746214 -167.38598633 298.16113281 C-166.72598633 298.16113281 -166.06598633 298.16113281 -165.38598633 298.16113281 C-165.38598633 297.50113281 -165.38598633 296.84113281 -165.38598633 296.16113281 C-166.37598633 296.16113281 -167.36598633 296.16113281 -168.38598633 296.16113281 C-170.09482638 294.53773476 -171.7604535 292.86794228 -173.38598633 291.16113281 C-176.76081238 288.91124877 -178.77747112 288.63605439 -182.76489258 288.08300781 C-184.06604004 287.89496582 -185.3671875 287.70692383 -186.70776367 287.51318359 C-187.74474396 287.36674408 -187.74474396 287.36674408 -188.80267334 287.21734619 C-258.3785078 277.28868443 -258.3785078 277.28868443 -278.65942383 250.78613281 C-283.51032446 243.41100788 -286.09827092 234.99346176 -285.38598633 226.16113281 C-282.53256275 214.97089938 -276.88681601 206.01939081 -267.15551758 199.69628906 C-262.41012976 197.0659119 -257.44461041 195.0981376 -252.38598633 193.16113281 C-251.72598633 192.83113281 -251.06598633 192.50113281 -250.38598633 192.16113281 C-230.94930887 189.49564251 -206.33569853 186.84456208 -187.38598633 193.16113281 C-187.29961914 191.91203125 -187.21325195 190.66292969 -187.12426758 189.37597656 C-186.25825533 178.24955483 -184.63751273 167.58008737 -182.06298828 156.71557617 C-181.84731201 155.80042236 -181.63163574 154.88526855 -181.40942383 153.94238281 C-181.11430908 152.73678711 -181.11430908 152.73678711 -180.81323242 151.50683594 C-180.35870735 149.01136345 -180.31243587 146.69216679 -180.38598633 144.16113281 C-179.72598633 144.16113281 -179.06598633 144.16113281 -178.38598633 144.16113281 C-178.14750977 142.91976562 -177.9090332 141.67839844 -177.66333008 140.39941406 C-171.17358518 111.36276505 -153.66161484 83.53077006 -133.38598633 62.16113281 C-132.33517101 60.91881377 -131.29225543 59.66972468 -130.26098633 58.41113281 C-126.97937297 54.56747518 -123.28459976 51.36624289 -119.38598633 48.16113281 C-117.87004883 46.90623047 -117.87004883 46.90623047 -116.32348633 45.62597656 C-85.68266513 20.66433068 -47.86148952 6.1157546 -8.71020508 1.59863281 C-5.21950461 1.13922218 -3.61604553 0.02990235 0 0 Z " fill="#85C3EB" transform="translate(468.385986328125,79.8388671875)"/>
<path d="M0 0 C45.19993134 8.05596862 78.13990927 29.12621977 104.6875 67.04296875 C115.22233602 82.51988225 124.57317234 99.47561489 130.171875 117.38671875 C130.86181982 119.56395028 131.63543371 121.6391706 132.5 123.75 C152.65431034 176.54553034 147.96262597 244.03378904 125.6875 295.3125 C124.50759199 297.90036548 123.26274404 300.451684 122 303 C121.41460449 304.20317871 121.41460449 304.20317871 120.81738281 305.43066406 C110.01896177 327.46472259 95.86962944 346.23405047 79 364 C78.24178955 364.80123291 78.24178955 364.80123291 77.46826172 365.61865234 C70.07255198 373.3787282 62.32918413 380.31588964 53.7265625 386.71337891 C52.07614716 387.94325572 50.44418228 389.19466106 48.8125 390.44921875 C6.06329651 422.72074001 -52.06311919 440.82977419 -105.4296875 441.23828125 C-106.49061111 441.24798447 -107.55153473 441.25768768 -108.64460754 441.26768494 C-112.05477729 441.29248464 -115.46474924 441.3051935 -118.875 441.3125 C-120.0376236 441.31511841 -121.20024719 441.31773682 -122.39810181 441.32043457 C-146.22918069 441.32618913 -168.9272174 439.27739961 -192 433 C-191.67 432.34 -191.34 431.68 -191 431 C-188.94628906 430.4375 -188.94628906 430.4375 -186.265625 430 C-185.29882812 429.835 -184.33203125 429.67 -183.3359375 429.5 C-182.31757813 429.335 -181.29921875 429.17 -180.25 429 C-178.25437846 428.67167152 -176.25954797 428.3384909 -174.265625 428 C-173.37649414 427.855625 -172.48736328 427.71125 -171.57128906 427.5625 C-168.88330231 426.97447099 -166.52950037 426.07255005 -164 425 C-161 424 -161 424 -159.1171875 423.5625 C-140.85012173 418.97982148 -125.42121449 406.64383579 -112 394 C-111.00419922 393.10087891 -111.00419922 393.10087891 -109.98828125 392.18359375 C-81.8249239 365.73403096 -66.5191157 320.60428996 -64.90757751 282.83384705 C-64.86983041 280.66070143 -64.86119948 278.48986273 -64.8671875 276.31640625 C-64.86623077 275.53482651 -64.86527405 274.75324677 -64.86428833 273.94798279 C-64.86361398 272.3153373 -64.86541564 270.68268902 -64.86962891 269.05004883 C-64.87503914 266.54437353 -64.86963276 264.03887333 -64.86328125 261.53320312 C-64.86394117 259.94010377 -64.86522055 258.34700453 -64.8671875 256.75390625 C-64.86415115 255.63055626 -64.86415115 255.63055626 -64.86105347 254.48451233 C-64.80650772 250.61481292 -64.80650772 250.61481292 -66 247 C-66.27699719 243.65844662 -66.44700704 240.31714126 -66.62109375 236.96875 C-66.70697327 233.88509744 -66.70697327 233.88509744 -69 232 C-71.92317331 232.3339894 -74.73664701 232.78065966 -77.625 233.3125 C-114.00332319 239.28919811 -151.21813969 234.78469433 -186 223 C-186.66547852 222.77763672 -187.33095703 222.55527344 -188.01660156 222.32617188 C-224.04893789 210.10254386 -255.46747063 190.05803438 -283 164 C-283.52352051 163.51047852 -284.04704102 163.02095703 -284.58642578 162.51660156 C-309.96854101 138.65571441 -333.73661331 103.64834031 -336 68 C-336.07094422 61.45539565 -335.09576026 55.29392297 -331 50 C-324.52232738 44.90934612 -317.90977018 44.38384981 -310 45 C-299.6478037 47.16989618 -290.56182843 51.28146912 -281.1875 56 C-279.31157946 56.93080212 -277.43404902 57.85828665 -275.55618286 58.78515625 C-273.77969965 59.66316804 -272.00577736 60.54635539 -270.23193359 61.4296875 C-266.72370557 63.13424428 -263.17654636 64.69794234 -259.56762695 66.17578125 C-258 67 -258 67 -257 69 C-255.00410409 69.67885488 -253.00288058 70.34203812 -251 71 C-248.78579672 72.01129994 -246.61180036 73.09166453 -244.43066406 74.17236328 C-216.90872097 87.79661902 -187.76743533 97.62023057 -158 105 C-158.50789062 104.35675781 -159.01578125 103.71351563 -159.5390625 103.05078125 C-168.53985174 91.23513844 -175.30902577 78.17912866 -174 63 C-172.92916319 57.25642073 -170.99641885 54.09632932 -167 50 C-166.34 50 -165.68 50 -165 50 C-164.67 49.34 -164.34 48.68 -164 48 C-158.8052549 52.42105966 -155.69406599 57.00371693 -152.5 62.9375 C-145.59160863 75.63927965 -137.24098518 82.91630411 -124 89 C-123.90589844 88.27296875 -123.81179688 87.5459375 -123.71484375 86.796875 C-120.91925629 75.8589481 -107.75864859 66.58110001 -98.75 60.8125 C-75.47773317 47.08922894 -47.30987482 41.19000119 -20.75 48 C-18.4775275 48.61665739 -16.24343741 49.28210003 -14 50 C-4.16583429 38.93656358 2.72024442 24.86973301 4.3125 10.1015625 C3.88939826 5.90227774 2.2653925 3.53967578 0 0 Z " fill="#C7E3F4" transform="translate(468,328)"/>
<path d="M0 0 C1.23785611 0.62194642 2.47548539 1.2443445 3.71289062 1.8671875 C5.58881116 2.79798962 7.46634161 3.72547415 9.34420776 4.65234375 C11.12069097 5.53035554 12.89461327 6.41354289 14.66845703 7.296875 C18.17668505 9.00143178 21.72384427 10.56512984 25.33276367 12.04296875 C26.90039062 12.8671875 26.90039062 12.8671875 27.90039062 14.8671875 C29.89628654 15.54604238 31.89751005 16.20922562 33.90039062 16.8671875 C36.1145939 17.87848744 38.28859026 18.95885203 40.46972656 20.03955078 C63.83080805 31.60404488 88.71996279 41.21084199 114.06835938 47.41015625 C115.55650146 47.7817688 115.55650146 47.7817688 117.07470703 48.16088867 C118.92610295 48.6136434 120.78376061 49.04191533 122.64794922 49.4387207 C128.69942255 50.90763231 131.85120994 53.29375178 136.03051758 57.87011719 C138.70865592 60.73043468 141.69664294 62.85438535 144.96289062 64.9921875 C145.5999292 65.41250244 146.23696777 65.83281738 146.89331055 66.26586914 C155.09567965 71.4937859 163.92670118 74.97250418 173.40039062 77.1796875 C179.3155215 78.90452797 181.73395295 82.81065156 184.90039062 87.8671875 C185.609375 88.97707031 186.31835938 90.08695312 187.04882812 91.23046875 C202.99138635 116.71866802 215.96546973 146.73932602 218.90039062 176.8671875 C191.06182139 183.75792246 161.95636142 182.87296064 133.90039062 177.8671875 C132.99885254 177.70766602 132.09731445 177.54814453 131.16845703 177.38378906 C81.99841866 168.38410876 37.96808676 144.00329077 1.90039062 109.8671875 C1.37687012 109.37766602 0.85334961 108.88814453 0.31396484 108.38378906 C-25.06815039 84.52290191 -48.83622269 49.51552781 -51.09960938 13.8671875 C-51.1705536 7.32258315 -50.19536964 1.16111047 -46.09960938 -4.1328125 C-32.1690199 -15.08054227 -13.90775724 -6.88926352 0 0 Z " fill="#85C2EB" transform="translate(183.099609375,382.1328125)"/>
<path d="M0 0 C28.98303987 7.9091958 55.89794771 22.66862349 78 43 C78.6290625 43.5784668 79.258125 44.15693359 79.90625 44.75292969 C100.09896499 63.57514303 120.93403475 90.81728007 125 119 C125.04338016 123.82242828 124.45869873 127.80370499 122 132 C117.01200393 136.36449656 112.4069193 136.97531761 106 137 C101.2811944 136.45657762 96.6551971 135.56001822 92 134.625 C63.9995049 129.18045929 36.65570058 130.17651899 10 141 C8.76302083 139.47005208 7.52604167 137.94010417 6.2890625 136.41015625 C5.0333609 134.86733563 5.0333609 134.86733563 3 134 C3 133.34 3 132.68 3 132 C2.10994263 131.60458008 2.10994263 131.60458008 1.2019043 131.20117188 C-1.08981423 129.95100499 -2.46041751 128.68384587 -4.23046875 126.78125 C-7.97179022 122.93132559 -12.02089928 119.71240076 -16.3125 116.5 C-17.06595703 115.93176514 -17.81941406 115.36353027 -18.59570312 114.77807617 C-20.72510928 113.17804112 -22.86118008 111.58741793 -25 110 C-25.90105469 109.32582031 -26.80210937 108.65164063 -27.73046875 107.95703125 C-36.41371725 101.66503879 -45.88302996 96.34976931 -55.28125 91.203125 C-56.62703125 90.45289063 -56.62703125 90.45289063 -58 89.6875 C-59.1446875 89.07455078 -59.1446875 89.07455078 -60.3125 88.44921875 C-62 87 -62 87 -62.875 84.45703125 C-62.91625 83.64621094 -62.9575 82.83539063 -63 82 C-62.01 81.01 -62.01 81.01 -61 80 C-55.99141924 80.2946224 -51.89327357 82.24103203 -47.5 84.5 C-46.45005859 85.03512207 -46.45005859 85.03512207 -45.37890625 85.58105469 C-28.51640746 94.3401013 -13.36263605 105.99313301 0.9375 118.4296875 C3.31549526 120.42550495 5.70527514 122.30720192 8.19140625 124.16064453 C8.90627197 124.69432648 9.6211377 125.22800842 10.35766602 125.77786255 C10.89963623 126.18116791 11.44160645 126.58447327 12 127 C11.69612706 88.80631491 8.31631891 52.24032257 1.914505 14.62075806 C1.09796196 9.75627328 0.46152481 4.90995666 0 0 Z " fill="#65AADA" transform="translate(803,360)"/>
<path d="M0 0 C3.48681035 2.10661459 4.70851665 2.93804994 6 6.8125 C6.65366561 18.7214704 1.40443572 29.91859453 -4.5 39.9375 C-4.86738281 40.56495117 -5.23476563 41.19240234 -5.61328125 41.83886719 C-7.93288213 45.60309582 -10.10329407 48.64702003 -14 50.8125 C-17.00390625 50.328125 -17.00390625 50.328125 -20.5625 49.0625 C-37.32046542 43.9720862 -57.56117842 44.93238996 -74 50.8125 C-74.63147949 51.03212402 -75.26295898 51.25174805 -75.91357422 51.47802734 C-93.44532472 57.65721503 -112.71976555 68.08892048 -121.4375 85.3125 C-121.953125 86.4675 -122.46875 87.6225 -123 88.8125 C-137.1694272 84.51180875 -145.76720274 75.27167828 -152.625 62.625 C-152.97320801 61.94767822 -153.32141602 61.27035645 -153.68017578 60.57250977 C-156.19494829 55.78880929 -158.89351151 52.36391196 -163 48.8125 C-164.33240256 48.47546542 -165.66572086 48.14202702 -167 47.8125 C-169.5625 45.4375 -169.5625 45.4375 -172 42.8125 C-172.99646021 41.8089727 -173.99564276 40.8081237 -175 39.8125 C-173.92234375 39.8846875 -172.8446875 39.956875 -171.734375 40.03125 C-98.1216671 44.96241949 -98.1216671 44.96241949 -32.5625 16.4375 C-29.45926124 13.50944407 -27.06820874 10.61507006 -24.8125 7 C-19.19669875 -1.9228842 -9.82290921 -3.62115721 0 0 Z " fill="#2C3A46" transform="translate(467,328.1875)"/>
<path d="M0 0 C0 5.3550691 -4.99670984 8.95245004 -8.60644531 12.62939453 C-23.78341543 27.55642856 -43.40257867 37.38419233 -64 42 C-65.16873657 42.26369385 -65.16873657 42.26369385 -66.36108398 42.53271484 C-79.67501766 44.89027512 -95.09053011 43.87976913 -108 40 C-108.703125 38.3203125 -108.703125 38.3203125 -109 36 C-99.71965218 18.06945143 -79.62372019 6.47428935 -61.10058594 0.37451172 C-41.43799649 -5.73818449 -19.65947842 -6.83807945 0 0 Z " fill="#F36F76" transform="translate(453,378)"/>
<path d="M0 0 C7.75103972 5.38724747 13.17715641 11.91155065 16 21 C17.44213781 32.01599384 17.44213781 32.01599384 14.6796875 35.81640625 C11.89294638 37.78008662 9.34764235 37.88253886 6 38 C3.10749479 36.44332588 2.14438441 35.34742498 0.875 32.29296875 C0.58625 31.26816406 0.2975 30.24335938 0 29.1875 C-1.94181169 22.97220311 -3.77765652 18.79678834 -8.9375 14.625 C-14.26348391 11.91609439 -20.22158308 12.05833206 -26 13 C-31.71505789 15.63217177 -34.67836089 19.78028141 -38 25 C-40.55230944 26.95677057 -41.75736508 27.00505489 -45 26.9375 C-48.86590284 25.72940536 -50.07080563 24.54971764 -52 21 C-52.24983951 14.50417268 -49.03185269 9.81362804 -45 5 C-32.6440954 -6.959034 -14.74758178 -8.81131814 0 0 Z " fill="#232C33" transform="translate(506,263)"/>
<path d="M0 0 C6.29391088 4.86599718 11.11949971 12.95962368 12.8359375 20.68359375 C13.35959681 28.27665369 13.35959681 28.27665369 10.8359375 31.68359375 C8.29324716 33.5906115 6.97993857 33.68947134 3.7734375 33.55859375 C0.28291177 32.51886268 -0.25664443 31.69365624 -2.1640625 28.68359375 C-2.79060514 27.07475967 -3.37268481 25.44804883 -3.9140625 23.80859375 C-5.87467718 18.68374378 -8.52703509 15.59921888 -13.1640625 12.68359375 C-18.15289043 11.02065111 -23.37584134 10.6790501 -28.38671875 12.484375 C-34.01796363 15.6417782 -36.9177809 20.24691453 -40.1640625 25.68359375 C-41.1640625 26.68359375 -41.1640625 26.68359375 -44.9765625 26.93359375 C-47.56422858 26.87319939 -49.21312297 26.66519607 -51.6640625 25.74609375 C-53.75762442 22.86744611 -53.84447335 20.66144845 -53.66796875 17.1484375 C-51.99292892 8.9550256 -44.76897899 2.29870101 -38.1640625 -2.31640625 C-25.36567716 -9.1383684 -12.18034626 -7.40934421 0 0 Z " fill="#20282F" transform="translate(370.1640625,245.31640625)"/>
<path d="M0 0 C5.19812033 0.16349963 7.8501237 3.3651985 11.2265625 6.90625 C11.81488861 7.50497925 12.40321472 8.1037085 13.0093689 8.72058105 C14.89101838 10.63778383 16.75882319 12.56774249 18.625 14.5 C26.74502812 22.86557197 34.78473382 30.82880634 44 38 C45.26738768 39.03532207 46.53205993 40.07398461 47.79296875 41.1171875 C55.8737672 47.70862044 64.22476097 53.71586058 72.86621094 59.54541016 C76.77756142 62.21175182 80.63703667 64.95174078 84.5 67.6875 C85.24878418 68.21730469 85.99756836 68.74710938 86.76904297 69.29296875 C88.51330437 70.52778595 90.25674801 71.76375818 92 73 C91.25 78.75 91.25 78.75 89 81 C55.69803251 59.84345595 55.69803251 59.84345595 41 48 C40.08476563 47.27683594 39.16953125 46.55367187 38.2265625 45.80859375 C4.27126308 18.61516628 4.27126308 18.61516628 -2 6 C-1.55483871 1.55483871 -1.55483871 1.55483871 0 0 Z " fill="#61A5D7" transform="translate(695,537)"/>
<path d="M0 0 C0.33 0 0.66 0 1 0 C1 11.55 1 23.1 1 35 C-2.35155784 33.32422108 -4.44436813 31.92918995 -7.1875 29.5 C-7.88230469 28.8915625 -8.57710937 28.283125 -9.29296875 27.65625 C-11 26 -11 26 -12 24 C-8.05860922 25.66751148 -5.2107188 28.22710649 -2 31 C-0.11368457 29.11368457 -0.75734708 25.85799307 -0.68359375 23.33984375 C-0.66281265 22.67537735 -0.64203156 22.01091095 -0.62062073 21.3263092 C-0.55506342 19.19681457 -0.49621215 17.06719332 -0.4375 14.9375 C-0.39432061 13.49673153 -0.35070651 12.05597601 -0.30664062 10.61523438 C-0.19937607 7.0769596 -0.09812629 3.53854131 0 0 Z " fill="#8DC9EF" transform="translate(814,452)"/>
<path d="M0 0 C13.86 0.33 27.72 0.66 42 1 C42 1.33 42 1.66 42 2 C41.10796875 2.06058594 40.2159375 2.12117187 39.296875 2.18359375 C37.54117188 2.30927734 37.54117188 2.30927734 35.75 2.4375 C34.00976562 2.55931641 34.00976562 2.55931641 32.234375 2.68359375 C29.13958478 2.89757377 29.13958478 2.89757377 26.765625 3.59765625 C25 4 25 4 22 3 C20.3022542 2.78626703 18.59928184 2.61265449 16.89453125 2.46484375 C15.91162109 2.37783203 14.92871094 2.29082031 13.91601562 2.20117188 C12.37977539 2.0706543 12.37977539 2.0706543 10.8125 1.9375 C9.77673828 1.84662109 8.74097656 1.75574219 7.67382812 1.66210938 C5.11614956 1.43816517 2.55822541 1.21759327 0 1 C0 0.67 0 0.34 0 0 Z " fill="#8ECAEF" transform="translate(332,560)"/>
<path d="M0 0 C0.66 0 1.32 0 2 0 C0.61867539 3.1268791 -0.97903763 5.19920392 -3.4375 7.5625 C-4.03433594 8.14128906 -4.63117188 8.72007812 -5.24609375 9.31640625 C-6.3943846 10.41866317 -7.55296023 11.51032838 -8.72265625 12.58984375 C-10.22378109 13.92993742 -10.22378109 13.92993742 -10 16 C-12.31 16.66 -14.62 17.32 -17 18 C-15.71738173 14.1521452 -13.93747052 13.15480673 -10.75 10.6875 C-7.50579697 8.11233495 -4.50557535 5.69608504 -1.9375 2.4375 C-1.298125 1.633125 -0.65875 0.82875 0 0 Z " fill="#B6EFF6" transform="translate(450,383)"/>
<path d="M0 0 C0.33 0.66 0.66 1.32 1 2 C0.22265625 3.9453125 0.22265625 3.9453125 -0.9375 6.125 C-1.31777344 6.84945313 -1.69804687 7.57390625 -2.08984375 8.3203125 C-2.39019531 8.87460937 -2.69054687 9.42890625 -3 10 C-8.80342274 8.51194289 -13.17590879 5.40902445 -18 2 C-14.45937709 2 -12.73666469 3.24349121 -9.81640625 5.125 C-7.73541729 6.28932691 -7.73541729 6.28932691 -4 6 C-1.71760829 3.07678035 -1.71760829 3.07678035 0 0 Z " fill="#162430" transform="translate(347,407)"/>
<path d="M0 0 C0 0.66 0 1.32 0 2 C-0.969375 1.95875 -1.93875 1.9175 -2.9375 1.875 C-6.7656076 1.85947015 -10.20564799 2.65547353 -13.91015625 3.5546875 C-16.31139305 4.06635291 -18.5520071 4.15793503 -21 4 C-19.68 3.67 -18.36 3.34 -17 3 C-17 2.34 -17 1.68 -17 1 C-14.91835982 0.63601378 -12.83459438 0.28416713 -10.75 -0.0625 C-9.00976562 -0.35833984 -9.00976562 -0.35833984 -7.234375 -0.66015625 C-4.37477376 -0.9606216 -2.66674071 -0.9439206 0 0 Z " fill="#73BEE1" transform="translate(152,926)"/>
<path d="M0 0 C-1.28913487 0.67154933 -2.58140204 1.33708859 -3.875 2 C-4.59429687 2.37125 -5.31359375 2.7425 -6.0546875 3.125 C-8 4 -8 4 -10 4 C-10.33 4.99 -10.66 5.98 -11 7 C-13.89558441 8.4477922 -15.74188938 9 -19 9 C-14.39996664 4.87583216 -6.27947074 -2.09315691 0 0 Z " fill="#F58186" transform="translate(383,384)"/>
<path d="M0 0 C1.49080078 0.02707031 1.49080078 0.02707031 3.01171875 0.0546875 C3.77097656 0.07789063 4.53023438 0.10109375 5.3125 0.125 C5.3125 0.455 5.3125 0.785 5.3125 1.125 C4.68601562 1.17398437 4.05953125 1.22296875 3.4140625 1.2734375 C2.18816406 1.38558594 2.18816406 1.38558594 0.9375 1.5 C0.12539063 1.56960938 -0.68671875 1.63921875 -1.5234375 1.7109375 C-3.89084191 1.95392588 -3.89084191 1.95392588 -5.6875 4.125 C-8.29906878 5.60488898 -10.75591778 6.49680381 -13.6875 7.125 C-6.59881961 -0.15526634 -6.59881961 -0.15526634 0 0 Z " fill="#A2E3F2" transform="translate(485.6875,274.875)"/>
<path d="M0 0 C3.63 0 7.26 0 11 0 C11 0.33 11 0.66 11 1 C7.04 1.66 3.08 2.32 -1 3 C-1 3.66 -1 4.32 -1 5 C-5.455 5.495 -5.455 5.495 -10 6 C-7.90217213 3.90217213 -6.6200793 3.3490604 -3.875 2.375 C-3.15054688 2.11460937 -2.42609375 1.85421875 -1.6796875 1.5859375 C-0.84824219 1.29589844 -0.84824219 1.29589844 0 1 C0 0.67 0 0.34 0 0 Z " fill="#7CB9E0" transform="translate(216,272)"/>
<path d="M0 0 C1.41778293 2.83556587 0.86257622 4.9908706 0.5625 8.125 C0.46066406 9.22070312 0.35882813 10.31640625 0.25390625 11.4453125 C0.17011719 12.28835938 0.08632812 13.13140625 0 14 C-0.33 13.34 -0.66 12.68 -1 12 C-1.66 12 -2.32 12 -3 12 C-2.88541307 10.56163249 -2.75790884 9.12429034 -2.625 7.6875 C-2.55539063 6.88699219 -2.48578125 6.08648438 -2.4140625 5.26171875 C-2 3 -2 3 0 0 Z " fill="#82BAE0" transform="translate(107,911)"/>
<path d="M0 0 C1.00685307 3.0205592 1.02876261 4.47076266 0.6875 7.5625 C0.60886719 8.34753906 0.53023438 9.13257813 0.44921875 9.94140625 C0 12 0 12 -2 14 C-2 9.71 -2 5.42 -2 1 C-1.34 0.67 -0.68 0.34 0 0 Z " fill="#D7ECF9" transform="translate(297,385)"/>
<path d="M0 0 C0 3.58719877 -0.12197366 5.93109837 -2.4375 8.75 C-4 10 -4 10 -6 10 C-5.49477778 5.62140745 -2.82172778 3.18348776 0 0 Z " fill="#82BCE3" transform="translate(117,898)"/>
<path d="M0 0 C4.12909166 0.45878796 6.30082908 0.81007073 9 4 C10.31963709 5.01800576 11.65009646 6.02248365 13 7 C7.92990529 6.52467862 4.02506742 3.95637706 0 1 C0 0.67 0 0.34 0 0 Z " fill="#83BBE2" transform="translate(234,528)"/>
<path d="M0 0 C1.67542976 0.28604898 3.34385343 0.61781233 5 1 C3.02 1.99 3.02 1.99 1 3 C1.33 4.65 1.66 6.3 2 8 C0.68 7.34 -0.64 6.68 -2 6 C-1.125 1.125 -1.125 1.125 0 0 Z " fill="#5CA2D5" transform="translate(742,440)"/>
<path d="M0 0 C1.31571603 0.2547514 2.62760376 0.52934141 3.9375 0.8125 C4.66839844 0.96332031 5.39929688 1.11414063 6.15234375 1.26953125 C6.76207031 1.51058594 7.37179687 1.75164062 8 2 C8.33 2.99 8.66 3.98 9 5 C6.36 4.34 3.72 3.68 1 3 C0.67 3.66 0.34 4.32 0 5 C0 3.35 0 1.7 0 0 Z " fill="#6FB0DC" transform="translate(803,360)"/>
<path d="M0 0 C0 4.24645065 -1.81750806 6.38524772 -4 10 C-4.6875 8.3125 -4.6875 8.3125 -5 6 C-2.73846154 1.36923077 -2.73846154 1.36923077 0 0 Z " fill="#D0E8F7" transform="translate(384,686)"/>
<path d="M0 0 C1.98 0 3.96 0 6 0 C6.33 0.66 6.66 1.32 7 2 C6.01 2.99 5.02 3.98 4 5 C2.68 3.35 1.36 1.7 0 0 Z " fill="#70B2DE" transform="translate(810,496)"/>
<path d="M0 0 C-2.6855594 2.6855594 -5.37621328 3.06049974 -9 4 C-8.67 3.01 -8.34 2.02 -8 1 C-2.59770115 -1.29885057 -2.59770115 -1.29885057 0 0 Z " fill="#78BEE1" transform="translate(191,909)"/>
<path d="M0 0 C2.50298434 2.93828597 3.46930939 5.17902761 4 9 C3.67 8.34 3.34 7.68 3 7 C2.34 7 1.68 7 1 7 C0.34 5.02 -0.32 3.04 -1 1 C-0.67 0.67 -0.34 0.34 0 0 Z " fill="#7FBDE6" transform="translate(773,273)"/>
<path d="M0 0 C1.31223496 3.93670488 0.24296256 6.12488144 -1 10 C-1.33 10 -1.66 10 -2 10 C-2.33 7.03 -2.66 4.06 -3 1 C-2.01 0.67 -1.02 0.34 0 0 Z " fill="#8EC9EE" transform="translate(291,223)"/>
<path d="M0 0 C-4.44 2.96 -4.44 2.96 -7 4 C-7.99 3.67 -8.98 3.34 -10 3 C-9.34 3 -8.68 3 -8 3 C-8 2.34 -8 1.68 -8 1 C-5.29120665 -0.35439668 -2.99066732 -0.06501451 0 0 Z " fill="#80BADF" transform="translate(588,816)"/>
<path d="M0 0 C0.33 0.66 0.66 1.32 1 2 C1.66 2 2.32 2 3 2 C3.33 2.99 3.66 3.98 4 5 C3.01 6.485 3.01 6.485 2 8 C2 7.34 2 6.68 2 6 C1.01 6 0.02 6 -1 6 C-0.67 4.02 -0.34 2.04 0 0 Z " fill="#71BBE6" transform="translate(138,644)"/>
<path d="M0 0 C2.3125 0.1875 2.3125 0.1875 5 1 C6.8125 3.5625 6.8125 3.5625 8 6 C5 6 5 6 3.61328125 4.6875 C2.40885417 3.125 1.20442708 1.5625 0 0 Z " fill="#5D718B" transform="translate(295,370)"/>
<path d="M0 0 C2.475 0.495 2.475 0.495 5 1 C3.02 1.99 3.02 1.99 1 3 C0.67 2.01 0.34 1.02 0 0 Z " fill="#ECF5FF" transform="translate(263,365)"/>
<path d="M0 0 C1.98 0 3.96 0 6 0 C6 0.33 6 0.66 6 1 C4.02 1 2.04 1 0 1 C0 0.67 0 0.34 0 0 Z " fill="#5CDBFF" transform="translate(387,846)"/>
<path d="M0 0 C0.99 0.495 0.99 0.495 2 1 C1.67 1.99 1.34 2.98 1 4 C0.67 2.68 0.34 1.36 0 0 Z " fill="#55B8FF" transform="translate(138,651)"/>
<path d="M0 0 C0.33 0 0.66 0 1 0 C1 1.98 1 3.96 1 6 C0.67 6 0.34 6 0 6 C0 4.02 0 2.04 0 0 Z " fill="#E1E1FF" transform="translate(402,578)"/>
<path d="M0 0 C0.99 0.33 1.98 0.66 3 1 C3 1.66 3 2.32 3 3 C2.34 3 1.68 3 1 3 C0.67 2.01 0.34 1.02 0 0 Z " fill="#DBFFFF" transform="translate(297,417)"/>
<path d="M0 0 C1.98 0 3.96 0 6 0 C6 0.33 6 0.66 6 1 C4.02 1 2.04 1 0 1 C0 0.67 0 0.34 0 0 Z " fill="#75BAE4" transform="translate(456,80)"/>
<path d="M0 0 C1.65 0 3.3 0 5 0 C5 0.33 5 0.66 5 1 C3.35 1 1.7 1 0 1 C0 0.67 0 0.34 0 0 Z " fill="#55DDFF" transform="translate(475,846)"/>
<path d="M0 0 C1.32 0.33 2.64 0.66 4 1 C2.68 1.33 1.36 1.66 0 2 C0 1.34 0 0.68 0 0 Z " fill="#A3C0E2" transform="translate(336,838)"/>
<path d="M0 0 C0.66 1.32 1.32 2.64 2 4 C1.34 3.67 0.68 3.34 0 3 C0 2.01 0 1.02 0 0 Z " fill="#CCCCFF" transform="translate(147,676)"/>
<path d="M0 0 C0.99 0.495 0.99 0.495 2 1 C2 1.66 2 2.32 2 3 C1.34 3 0.68 3 0 3 C0 2.01 0 1.02 0 0 Z " fill="#88EEFF" transform="translate(147,445)"/>
<path d="M0 0 C0.99 0.33 1.98 0.66 3 1 C2.01 1.33 1.02 1.66 0 2 C0 1.34 0 0.68 0 0 Z " fill="#BBBBFF" transform="translate(291,370)"/>
<path d="M0 0 C1.65 0 3.3 0 5 0 C5 0.33 5 0.66 5 1 C3.35 1 1.7 1 0 1 C0 0.67 0 0.34 0 0 Z " fill="#88E5F6" transform="translate(273,367)"/>
<path d="M0 0 C0.33 0 0.66 0 1 0 C1 1.65 1 3.3 1 5 C0.67 5 0.34 5 0 5 C0 3.35 0 1.7 0 0 Z " fill="#E5F2FF" transform="translate(280,263)"/>
<path d="M0 0 C1.65 0 3.3 0 5 0 C5 0.33 5 0.66 5 1 C3.35 1 1.7 1 0 1 C0 0.67 0 0.34 0 0 Z " fill="#77BBFF" transform="translate(530,81)"/>
<path d="M0 0 C4 1 4 1 4 1 Z " fill="#AAAAFF" transform="translate(403,847)"/>
<path d="M0 0 C4 1 4 1 4 1 Z " fill="#BFEFFF" transform="translate(370,564)"/>
<path d="M0 0 C0.33 0.99 0.66 1.98 1 3 C0.34 2.67 -0.32 2.34 -1 2 C-0.67 1.34 -0.34 0.68 0 0 Z " fill="#DFFFFF" transform="translate(293,388)"/>
<path d="M0 0 C0.99 0.33 1.98 0.66 3 1 C2.01 1 1.02 1 0 1 C0 0.67 0 0.34 0 0 Z " fill="#8FA7D0" transform="translate(296,373)"/>
<path d="M0 0 C4 1 4 1 4 1 Z " fill="#FFFFFF" transform="translate(149,371)"/>
<path d="M0 0 C4 1 4 1 4 1 Z " fill="#DFFFFF" transform="translate(256,364)"/>
<path d="M0 0 C0.66 0.66 1.32 1.32 2 2 C1.34 2 0.68 2 0 2 C0 1.34 0 0.68 0 0 Z " fill="#63B1B1" transform="translate(104,926)"/>
<path d="M0 0 C3 1 3 1 3 1 Z " fill="#00FFFF" transform="translate(154,926)"/>
<path d="M0 0 C3 1 3 1 3 1 Z " fill="#FFFFFF" transform="translate(395,846)"/>
<path d="M0 0 C3 1 3 1 3 1 Z " fill="#55AAFF" transform="translate(520,839)"/>
<path d="M0 0 C0.99 0.495 0.99 0.495 2 1 C1.01 1.495 1.01 1.495 0 2 C0 1.34 0 0.68 0 0 Z " fill="#DDEEEE" transform="translate(268,822)"/>
<path d="M0 0 C0.33 0.66 0.66 1.32 1 2 C0.34 1.67 -0.32 1.34 -1 1 C-0.67 0.67 -0.34 0.34 0 0 Z " fill="#FFFFFF" transform="translate(164,749)"/>
<path d="M0 0 C0.99 0.495 0.99 0.495 2 1 C1.01 1.495 1.01 1.495 0 2 C0 1.34 0 0.68 0 0 Z " fill="#E2FFFF" transform="translate(340,733)"/>
<path d="" fill="#B8CDFF" transform="translate(0,0)"/>
<path d="" fill="#FFFFFF" transform="translate(0,0)"/>
<path d="" fill="#C6FFFF" transform="translate(0,0)"/>
<path d="M0 0 C0.33 0.66 0.66 1.32 1 2 C0.34 1.67 -0.32 1.34 -1 1 C-0.67 0.67 -0.34 0.34 0 0 Z " fill="#47B8E2" transform="translate(859,653)"/>
<path d="" fill="#DBF0FF" transform="translate(0,0)"/>
<path d="" fill="#FFFFFF" transform="translate(0,0)"/>
<path d="" fill="#FFFFFF" transform="translate(0,0)"/>
<path d="M0 0 C3 1 3 1 3 1 Z " fill="#B8E2FF" transform="translate(258,416)"/>
<path d="" fill="#AAFFFF" transform="translate(0,0)"/>
<path d="M0 0 C0.99 0.495 0.99 0.495 2 1 C1.01 1.495 1.01 1.495 0 2 C0 1.34 0 0.68 0 0 Z " fill="#55AAFF" transform="translate(644,120)"/>
<path d="M0 0 C3 1 3 1 3 1 Z " fill="#71E2FF" transform="translate(565,88)"/>
<path d="M0 0 C2 1 2 1 2 1 Z " fill="#40BFFF" transform="translate(134,931)"/>
<path d="M0 0 C2 1 2 1 2 1 Z " fill="#40BFFF" transform="translate(178,916)"/>
<path d="M0 0 C2 1 2 1 2 1 Z " fill="#809FDF" transform="translate(468,847)"/>
<path d="M0 0 C2 1 2 1 2 1 Z " fill="#00FFFF" transform="translate(487,845)"/>
<path d="M0 0 C2 1 2 1 2 1 Z " fill="#7FFFFF" transform="translate(482,845)"/>
<path d="M0 0 C2 1 2 1 2 1 Z " fill="#8080FF" transform="translate(344,839)"/>
<path d="M0 0 C2 1 2 1 2 1 Z " fill="#FFFFFF" transform="translate(341,839)"/>
<path d="M0 0 C2 1 2 1 2 1 Z " fill="#BFBFFF" transform="translate(533,836)"/>
<path d="M0 0 C2 1 2 1 2 1 Z " fill="#55D4FF" transform="translate(551,831)"/>
<path d="M0 0 C2 1 2 1 2 1 Z " fill="#BFBFFF" transform="translate(303,830)"/>
<path d="M0 0 C2 1 2 1 2 1 Z " fill="#BFBFFF" transform="translate(298,829)"/>
<path d="M0 0 C2 1 2 1 2 1 Z " fill="#9595FF" transform="translate(574,823)"/>
<path d="M0 0 C2 1 2 1 2 1 Z " fill="#7FFFFF" transform="translate(581,820)"/>
<path d="M0 0 C2 1 2 1 2 1 Z " fill="#FFFFFF" transform="translate(180,784)"/>
<path d="" fill="#D4D4FF" transform="translate(0,0)"/>
<path d="" fill="#8080FF" transform="translate(0,0)"/>
<path d="M0 0 C2 1 2 1 2 1 Z " fill="#D4FFFF" transform="translate(300,753)"/>
<path d="M0 0 C2 1 2 1 2 1 Z " fill="#B4FFFF" transform="translate(336,736)"/>
<path d="" fill="#9595FF" transform="translate(0,0)"/>
<path d="" fill="#BFBFFF" transform="translate(0,0)"/>
<path d="" fill="#FFFFFF" transform="translate(0,0)"/>
<path d="" fill="#E5E5FF" transform="translate(0,0)"/>
<path d="" fill="#95B4DF" transform="translate(0,0)"/>
<path d="" fill="#D4D4FF" transform="translate(0,0)"/>
<path d="M0 0 C2 1 2 1 2 1 Z " fill="#40BFFF" transform="translate(158,624)"/>
<path d="M0 0 C2 1 2 1 2 1 Z " fill="#8080FF" transform="translate(145,624)"/>
<path d="M0 0 C2 1 2 1 2 1 Z " fill="#FFFFFF" transform="translate(400,621)"/>
<path d="" fill="#55AAFF" transform="translate(0,0)"/>
<path d="" fill="#9FDFFF" transform="translate(0,0)"/>
<path d="M0 0 C2 1 2 1 2 1 Z " fill="#BFDFFF" transform="translate(330,563)"/>
<path d="M0 0 C2 1 2 1 2 1 Z " fill="#00FFFF" transform="translate(890,494)"/>
<path d="M0 0 C2 1 2 1 2 1 Z " fill="#40BFFF" transform="translate(877,492)"/>
<path d="" fill="#40BFFF" transform="translate(0,0)"/>
<path d="" fill="#95B4DF" transform="translate(0,0)"/>
<path d="" fill="#BFBFFF" transform="translate(0,0)"/>
<path d="M0 0 C2 1 2 1 2 1 Z " fill="#BFFFFF" transform="translate(238,408)"/>
<path d="M0 0 C2 1 2 1 2 1 Z " fill="#95D4FF" transform="translate(190,384)"/>
<path d="M0 0 C2 1 2 1 2 1 Z " fill="#95B4FF" transform="translate(172,376)"/>
<path d="M0 0 C2 1 2 1 2 1 Z " fill="#95D4FF" transform="translate(250,363)"/>
<path d="" fill="#40BFFF" transform="translate(0,0)"/>
<path d="M0 0 C2 1 2 1 2 1 Z " fill="#D4D4FF" transform="translate(211,273)"/>
<path d="M0 0 C2 1 2 1 2 1 Z " fill="#00FFFF" transform="translate(316,161)"/>
<path d="M0 0 C2 1 2 1 2 1 Z " fill="#55AAFF" transform="translate(630,113)"/>
<path d="M0 0 C2 1 2 1 2 1 Z " fill="#6A95FF" transform="translate(628,112)"/>
<path d="M0 0 C2 1 2 1 2 1 Z " fill="#7FFFFF" transform="translate(439,83)"/>
<path d="M0 0 C2 1 2 1 2 1 Z " fill="#00FFFF" transform="translate(518,80)"/>
<path d="" fill="#00FFFF" transform="translate(0,0)"/>
<path d="" fill="#00FFFF" transform="translate(0,0)"/>
<path d="" fill="#00FFFF" transform="translate(0,0)"/>
<path d="" fill="#00FFFF" transform="translate(0,0)"/>
<path d="" fill="#AAAAFF" transform="translate(0,0)"/>
<path d="" fill="#8080FF" transform="translate(0,0)"/>
<path d="" fill="#8080FF" transform="translate(0,0)"/>
<path d="" fill="#8080FF" transform="translate(0,0)"/>
<path d="" fill="#8080FF" transform="translate(0,0)"/>
<path d="" fill="#00FFFF" transform="translate(0,0)"/>
<path d="" fill="#00FFFF" transform="translate(0,0)"/>
<path d="" fill="#FFFFFF" transform="translate(0,0)"/>
<path d="" fill="#FFFFFF" transform="translate(0,0)"/>
<path d="" fill="#AAAAFF" transform="translate(0,0)"/>
<path d="" fill="#80BFBF" transform="translate(0,0)"/>
<path d="" fill="#FFFFFF" transform="translate(0,0)"/>
<path d="" fill="#FFFFFF" transform="translate(0,0)"/>
<path d="" fill="#FFFFFF" transform="translate(0,0)"/>
<path d="" fill="#FFFFFF" transform="translate(0,0)"/>
<path d="" fill="#80BFBF" transform="translate(0,0)"/>
<path d="" fill="#00FFFF" transform="translate(0,0)"/>
<path d="" fill="#00FFFF" transform="translate(0,0)"/>
<path d="" fill="#8080FF" transform="translate(0,0)"/>
<path d="" fill="#8080FF" transform="translate(0,0)"/>
<path d="" fill="#AAAAFF" transform="translate(0,0)"/>
<path d="" fill="#8080FF" transform="translate(0,0)"/>
<path d="" fill="#FFFFFF" transform="translate(0,0)"/>
<path d="" fill="#8080FF" transform="translate(0,0)"/>
<path d="" fill="#FFFFFF" transform="translate(0,0)"/>
<path d="" fill="#FFFFFF" transform="translate(0,0)"/>
<path d="" fill="#55AAFF" transform="translate(0,0)"/>
<path d="" fill="#80BFFF" transform="translate(0,0)"/>
<path d="" fill="#00FFFF" transform="translate(0,0)"/>
<path d="" fill="#00FFFF" transform="translate(0,0)"/>
<path d="" fill="#FFFFFF" transform="translate(0,0)"/>
<path d="" fill="#00FFFF" transform="translate(0,0)"/>
<path d="" fill="#8080FF" transform="translate(0,0)"/>
<path d="" fill="#99CCCC" transform="translate(0,0)"/>
<path d="" fill="#FFFFFF" transform="translate(0,0)"/>
<path d="" fill="#FFFFFF" transform="translate(0,0)"/>
<path d="" fill="#AAAAFF" transform="translate(0,0)"/>
<path d="" fill="#FFFFFF" transform="translate(0,0)"/>
<path d="" fill="#FFFFFF" transform="translate(0,0)"/>
<path d="" fill="#FFFFFF" transform="translate(0,0)"/>
<path d="" fill="#00FFFF" transform="translate(0,0)"/>
<path d="" fill="#AAAAFF" transform="translate(0,0)"/>
<path d="" fill="#80BFFF" transform="translate(0,0)"/>
<path d="" fill="#8080FF" transform="translate(0,0)"/>
<path d="" fill="#00FFFF" transform="translate(0,0)"/>
<path d="" fill="#FFFFFF" transform="translate(0,0)"/>
<path d="" fill="#00FFFF" transform="translate(0,0)"/>
<path d="" fill="#00FFFF" transform="translate(0,0)"/>
<path d="" fill="#55AAFF" transform="translate(0,0)"/>
<path d="" fill="#FFFFFF" transform="translate(0,0)"/>
<path d="" fill="#8080FF" transform="translate(0,0)"/>
<path d="" fill="#00FFFF" transform="translate(0,0)"/>
<path d="" fill="#FFFFFF" transform="translate(0,0)"/>
<path d="" fill="#55AAFF" transform="translate(0,0)"/>
<path d="" fill="#55AAFF" transform="translate(0,0)"/>
<path d="" fill="#AAAAFF" transform="translate(0,0)"/>
<path d="" fill="#00FFFF" transform="translate(0,0)"/>
<path d="" fill="#FFFFFF" transform="translate(0,0)"/>
<path d="" fill="#00FFFF" transform="translate(0,0)"/>
<path d="" fill="#FFFFFF" transform="translate(0,0)"/>
<path d="" fill="#80BFBF" transform="translate(0,0)"/>
<path d="" fill="#00FFFF" transform="translate(0,0)"/>
<path d="" fill="#FFFFFF" transform="translate(0,0)"/>
<path d="" fill="#FFFFFF" transform="translate(0,0)"/>
<path d="" fill="#AAFFFF" transform="translate(0,0)"/>
<path d="" fill="#FFFFFF" transform="translate(0,0)"/>
<path d="" fill="#80FFFF" transform="translate(0,0)"/>
<path d="" fill="#FFFFFF" transform="translate(0,0)"/>
<path d="" fill="#FFFFFF" transform="translate(0,0)"/>
<path d="" fill="#BFFFFF" transform="translate(0,0)"/>
<path d="" fill="#00FFFF" transform="translate(0,0)"/>
<path d="" fill="#FFFFFF" transform="translate(0,0)"/>
<path d="" fill="#FFFFFF" transform="translate(0,0)"/>
<path d="" fill="#AAFFFF" transform="translate(0,0)"/>
<path d="" fill="#FFFFFF" transform="translate(0,0)"/>
<path d="" fill="#FFFFFF" transform="translate(0,0)"/>
<path d="" fill="#FFFFFF" transform="translate(0,0)"/>
<path d="" fill="#FFFFFF" transform="translate(0,0)"/>
<path d="" fill="#AAAAFF" transform="translate(0,0)"/>
<path d="" fill="#FFFFFF" transform="translate(0,0)"/>
<path d="" fill="#FFFFFF" transform="translate(0,0)"/>
<path d="" fill="#AAAAFF" transform="translate(0,0)"/>
<path d="" fill="#FFFFFF" transform="translate(0,0)"/>
<path d="" fill="#FFFFFF" transform="translate(0,0)"/>
<path d="" fill="#FFFFFF" transform="translate(0,0)"/>
<path d="" fill="#FFFFFF" transform="translate(0,0)"/>
<path d="" fill="#00FFFF" transform="translate(0,0)"/>
<path d="" fill="#8080FF" transform="translate(0,0)"/>
<path d="" fill="#00FFFF" transform="translate(0,0)"/>
<path d="" fill="#FFFFFF" transform="translate(0,0)"/>
<path d="" fill="#FFFFFF" transform="translate(0,0)"/>
<path d="" fill="#FFFFFF" transform="translate(0,0)"/>
<path d="" fill="#FFFFFF" transform="translate(0,0)"/>
<path d="" fill="#FFFFFF" transform="translate(0,0)"/>
<path d="" fill="#8080FF" transform="translate(0,0)"/>
<path d="" fill="#8080FF" transform="translate(0,0)"/>
<path d="" fill="#00FFFF" transform="translate(0,0)"/>
<path d="" fill="#FFFFFF" transform="translate(0,0)"/>
<path d="" fill="#FFFFFF" transform="translate(0,0)"/>
<path d="" fill="#8080FF" transform="translate(0,0)"/>
<path d="" fill="#00FFFF" transform="translate(0,0)"/>
<path d="" fill="#FFFFFF" transform="translate(0,0)"/>
<path d="" fill="#80FFFF" transform="translate(0,0)"/>
<path d="" fill="#FFFFFF" transform="translate(0,0)"/>
<path d="" fill="#FFFFFF" transform="translate(0,0)"/>
<path d="" fill="#FFFFFF" transform="translate(0,0)"/>
<path d="" fill="#00FFFF" transform="translate(0,0)"/>
<path d="" fill="#8080FF" transform="translate(0,0)"/>
<path d="" fill="#FFFFFF" transform="translate(0,0)"/>
<path d="" fill="#FFFFFF" transform="translate(0,0)"/>
<path d="" fill="#8080FF" transform="translate(0,0)"/>
<path d="" fill="#AAAAFF" transform="translate(0,0)"/>
<path d="" fill="#FFFFFF" transform="translate(0,0)"/>
<path d="" fill="#8080FF" transform="translate(0,0)"/>
<path d="" fill="#FFFFFF" transform="translate(0,0)"/>
<path d="" fill="#8080FF" transform="translate(0,0)"/>
<path d="" fill="#99CCCC" transform="translate(0,0)"/>
<path d="" fill="#FFFFFF" transform="translate(0,0)"/>
<path d="" fill="#80BFFF" transform="translate(0,0)"/>
<path d="" fill="#AAAAFF" transform="translate(0,0)"/>
<path d="" fill="#AAFFFF" transform="translate(0,0)"/>
<path d="" fill="#FFFFFF" transform="translate(0,0)"/>
<path d="" fill="#FFFFFF" transform="translate(0,0)"/>
<path d="" fill="#AAAAFF" transform="translate(0,0)"/>
<path d="" fill="#FFFFFF" transform="translate(0,0)"/>
<path d="" fill="#80FFFF" transform="translate(0,0)"/>
<path d="" fill="#80FFFF" transform="translate(0,0)"/>
<path d="" fill="#FFFFFF" transform="translate(0,0)"/>
<path d="" fill="#FFFFFF" transform="translate(0,0)"/>
<path d="" fill="#FFFFFF" transform="translate(0,0)"/>
<path d="" fill="#00FFFF" transform="translate(0,0)"/>
<path d="" fill="#FFFFFF" transform="translate(0,0)"/>
<path d="" fill="#FFFFFF" transform="translate(0,0)"/>
<path d="" fill="#80FFFF" transform="translate(0,0)"/>
<path d="" fill="#FFFFFF" transform="translate(0,0)"/>
<path d="" fill="#FFFFFF" transform="translate(0,0)"/>
<path d="" fill="#FFFFFF" transform="translate(0,0)"/>
<path d="" fill="#FFFFFF" transform="translate(0,0)"/>
<path d="" fill="#AAAAFF" transform="translate(0,0)"/>
<path d="" fill="#80FFFF" transform="translate(0,0)"/>
<path d="" fill="#FFFFFF" transform="translate(0,0)"/>
<path d="" fill="#80FFFF" transform="translate(0,0)"/>
<path d="" fill="#00FFFF" transform="translate(0,0)"/>
<path d="" fill="#00FFFF" transform="translate(0,0)"/>
<path d="" fill="#FFFFFF" transform="translate(0,0)"/>
<path d="" fill="#8080FF" transform="translate(0,0)"/>
<path d="" fill="#AAAAFF" transform="translate(0,0)"/>
<path d="" fill="#00FFFF" transform="translate(0,0)"/>
<path d="" fill="#8080FF" transform="translate(0,0)"/>
<path d="" fill="#8080FF" transform="translate(0,0)"/>
<path d="" fill="#8080FF" transform="translate(0,0)"/>
<path d="" fill="#FFFFFF" transform="translate(0,0)"/>
<path d="" fill="#8080FF" transform="translate(0,0)"/>
<path d="" fill="#FFFFFF" transform="translate(0,0)"/>
<path d="" fill="#FFFFFF" transform="translate(0,0)"/>
<path d="" fill="#FFFFFF" transform="translate(0,0)"/>
<path d="" fill="#AAAAFF" transform="translate(0,0)"/>
<path d="" fill="#8080FF" transform="translate(0,0)"/>
<path d="" fill="#8080FF" transform="translate(0,0)"/>
<path d="" fill="#00FFFF" transform="translate(0,0)"/>
<path d="" fill="#FFFFFF" transform="translate(0,0)"/>
<path d="" fill="#FFFFFF" transform="translate(0,0)"/>
<path d="" fill="#FFFFFF" transform="translate(0,0)"/>
<path d="" fill="#66CCCC" transform="translate(0,0)"/>
<path d="" fill="#FFFFFF" transform="translate(0,0)"/>
<path d="" fill="#FFFFFF" transform="translate(0,0)"/>
<path d="" fill="#FFFFFF" transform="translate(0,0)"/>
<path d="" fill="#AAFFFF" transform="translate(0,0)"/>
<path d="" fill="#FFFFFF" transform="translate(0,0)"/>
<path d="" fill="#AAFFFF" transform="translate(0,0)"/>
<path d="" fill="#FFFFFF" transform="translate(0,0)"/>
<path d="" fill="#55AAFF" transform="translate(0,0)"/>
<path d="" fill="#8080FF" transform="translate(0,0)"/>
<path d="" fill="#80FFFF" transform="translate(0,0)"/>
<path d="" fill="#00FFFF" transform="translate(0,0)"/>
<path d="" fill="#FFFFFF" transform="translate(0,0)"/>
<path d="" fill="#FFFFFF" transform="translate(0,0)"/>
<path d="" fill="#00FFFF" transform="translate(0,0)"/>
<path d="" fill="#80FFFF" transform="translate(0,0)"/>
<path d="" fill="#00FFFF" transform="translate(0,0)"/>
<path d="" fill="#00FFFF" transform="translate(0,0)"/>
<path d="" fill="#80FFFF" transform="translate(0,0)"/>
<path d="" fill="#FFFFFF" transform="translate(0,0)"/>
<path d="" fill="#80FFFF" transform="translate(0,0)"/>
<path d="" fill="#FFFFFF" transform="translate(0,0)"/>
<path d="" fill="#00FFFF" transform="translate(0,0)"/>
<path d="" fill="#80FFFF" transform="translate(0,0)"/>
<path d="" fill="#FFFFFF" transform="translate(0,0)"/>
<path d="" fill="#FFFFFF" transform="translate(0,0)"/>
<path d="" fill="#00FFFF" transform="translate(0,0)"/>
<path d="" fill="#AAAAFF" transform="translate(0,0)"/>
<path d="" fill="#FFFFFF" transform="translate(0,0)"/>
<path d="" fill="#00FFFF" transform="translate(0,0)"/>
<path d="" fill="#FFFFFF" transform="translate(0,0)"/>
<path d="" fill="#8080FF" transform="translate(0,0)"/>
<path d="" fill="#FFFFFF" transform="translate(0,0)"/>
<path d="" fill="#FFFFFF" transform="translate(0,0)"/>
<path d="" fill="#00FFFF" transform="translate(0,0)"/>
<path d="" fill="#FFFFFF" transform="translate(0,0)"/>
<path d="" fill="#55AAAA" transform="translate(0,0)"/>
<path d="" fill="#AAAAAA" transform="translate(0,0)"/>
<path d="" fill="#FFFFFF" transform="translate(0,0)"/>
<path d="" fill="#80BFBF" transform="translate(0,0)"/>
<path d="" fill="#FFFFFF" transform="translate(0,0)"/>
<path d="" fill="#FFFFFF" transform="translate(0,0)"/>
<path d="" fill="#8080FF" transform="translate(0,0)"/>
<path d="" fill="#8080FF" transform="translate(0,0)"/>
<path d="" fill="#FFFFFF" transform="translate(0,0)"/>
<path d="" fill="#8080FF" transform="translate(0,0)"/>
<path d="" fill="#AAAAFF" transform="translate(0,0)"/>
<path d="" fill="#FFFFFF" transform="translate(0,0)"/>
<path d="" fill="#FFFFFF" transform="translate(0,0)"/>
<path d="" fill="#FFFFFF" transform="translate(0,0)"/>
<path d="" fill="#FFFFFF" transform="translate(0,0)"/>
<path d="" fill="#FFFFFF" transform="translate(0,0)"/>
<path d="" fill="#FFFFFF" transform="translate(0,0)"/>
<path d="" fill="#FFFFFF" transform="translate(0,0)"/>
<path d="" fill="#8080FF" transform="translate(0,0)"/>
<path d="" fill="#FFFFFF" transform="translate(0,0)"/>
<path d="" fill="#00FFFF" transform="translate(0,0)"/>
<path d="" fill="#FFFFFF" transform="translate(0,0)"/>
<path d="" fill="#00FFFF" transform="translate(0,0)"/>
<path d="" fill="#FFFFFF" transform="translate(0,0)"/>
<path d="" fill="#99CCCC" transform="translate(0,0)"/>
<path d="" fill="#00FFFF" transform="translate(0,0)"/>
<path d="" fill="#FFFFFF" transform="translate(0,0)"/>
<path d="" fill="#00FFFF" transform="translate(0,0)"/>
<path d="" fill="#FFFFFF" transform="translate(0,0)"/>
<path d="" fill="#00FFFF" transform="translate(0,0)"/>
<path d="" fill="#00FFFF" transform="translate(0,0)"/>
<path d="" fill="#00FFFF" transform="translate(0,0)"/>
<path d="" fill="#00FFFF" transform="translate(0,0)"/>
<path d="" fill="#8080FF" transform="translate(0,0)"/>
<path d="" fill="#55AAFF" transform="translate(0,0)"/>
<path d="" fill="#AAAAFF" transform="translate(0,0)"/>
<path d="" fill="#8080FF" transform="translate(0,0)"/>
<path d="" fill="#8080FF" transform="translate(0,0)"/>
<path d="" fill="#FFFFFF" transform="translate(0,0)"/>
<path d="" fill="#AAAAFF" transform="translate(0,0)"/>
<path d="" fill="#8080FF" transform="translate(0,0)"/>
<path d="" fill="#00FFFF" transform="translate(0,0)"/>
<path d="" fill="#8080FF" transform="translate(0,0)"/>
<path d="" fill="#00FFFF" transform="translate(0,0)"/>
<path d="" fill="#00FFFF" transform="translate(0,0)"/>
<path d="" fill="#00FFFF" transform="translate(0,0)"/>
<path d="" fill="#00FFFF" transform="translate(0,0)"/>
<path d="" fill="#55AAFF" transform="translate(0,0)"/>
<path d="" fill="#55AAFF" transform="translate(0,0)"/>
<path d="" fill="#8080FF" transform="translate(0,0)"/>
<path d="" fill="#00FFFF" transform="translate(0,0)"/>
<path d="" fill="#00FFFF" transform="translate(0,0)"/>
<path d="" fill="#00FFFF" transform="translate(0,0)"/>
<path d="" fill="#00FFFF" transform="translate(0,0)"/>
<path d="" fill="#00FFFF" transform="translate(0,0)"/>
<path d="" fill="#00FFFF" transform="translate(0,0)"/>
<path d="" fill="#8080FF" transform="translate(0,0)"/>
<path d="" fill="#00FFFF" transform="translate(0,0)"/>
<path d="" fill="#8080FF" transform="translate(0,0)"/>
<path d="" fill="#00FFFF" transform="translate(0,0)"/>
<path d="" fill="#8080FF" transform="translate(0,0)"/>
<path d="" fill="#8080FF" transform="translate(0,0)"/>
<path d="" fill="#00FFFF" transform="translate(0,0)"/>
<path d="" fill="#FFFFFF" transform="translate(0,0)"/>
<path d="" fill="#FFFFFF" transform="translate(0,0)"/>
<path d="" fill="#00FFFF" transform="translate(0,0)"/>
<path d="" fill="#80BFBF" transform="translate(0,0)"/>
<path d="" fill="#FFFFFF" transform="translate(0,0)"/>
<path d="" fill="#00FFFF" transform="translate(0,0)"/>
</svg>
